HIERARCHY
ROOT hip
{
	OFFSET 0.000000 0.000000 0.000000
	CHANNELS 6 Xposition Yposition Zposition Xrotation Zrotation Yrotation 
	JOINT abdomen
	{
		OFFSET 0.000000 3.422050 0.000000
		CHANNELS 3 Xrotation Zrotation Yrotation 
		JOINT chest
		{
			OFFSET 0.000000 8.486693 -0.684411
			CHANNELS 3 Xrotation Zrotation Yrotation 
			JOINT neck
			{
				OFFSET 0.000000 10.266162 -0.273764
				CHANNELS 3 Xrotation Zrotation Yrotation 
				JOINT head
				{
					OFFSET 0.000000 3.148285 0.000000
					CHANNELS 3 Xrotation Zrotation Yrotation 
					End Site
					{
						OFFSET 0.000000 3.148289 0.000000
					}
				}
			}
			JOINT lCollar
			{
				OFFSET 3.422053 6.707223 -0.821293
				CHANNELS 3 Yrotation Zrotation Xrotation 
				JOINT lShldr
				{
					OFFSET 3.285171 0.000000 0.000000
					CHANNELS 3 Zrotation Yrotation Xrotation 
					JOINT lForeArm
					{
						OFFSET 10.129278 0.000000 0.000000
						CHANNELS 3 Yrotation Zrotation Xrotation 
						JOINT lHand
						{
							OFFSET 8.486692 0.000000 0.000000
							CHANNELS 3 Zrotation Yrotation Xrotation 
							End Site
							{
								OFFSET 4.106464 0.000000 0.000000
							}
						}
					}
				}
			}
			JOINT rCollar
			{
				OFFSET -3.558935 6.707223 -0.821293
				CHANNELS 3 Yrotation Zrotation Xrotation 
				JOINT rShldr
				{
					OFFSET -3.148289 0.000000 0.000000
					CHANNELS 3 Zrotation Yrotation Xrotation 
					JOINT rForeArm
					{
						OFFSET -10.266159 0.000000 0.000000
						CHANNELS 3 Yrotation Zrotation Xrotation 
						JOINT rHand
						{
							OFFSET -8.349810 0.000000 0.000000
							CHANNELS 3 Zrotation Yrotation Xrotation 
							End Site
							{
								OFFSET -4.106464 0.000000 0.000000
							}
						}
					}
				}
			}
		}
	}
	JOINT lThigh
	{
		OFFSET 5.338403 -1.642589 1.368821
		CHANNELS 3 Xrotation Zrotation Yrotation 
		JOINT lShin
		{
			OFFSET -2.053232 -20.121670 0.000000
			CHANNELS 3 Xrotation Zrotation Yrotation 
			JOINT lFoot
			{
				OFFSET 0.000000 -19.300380 -1.231939
				CHANNELS 3 Xrotation Yrotation Zrotation 
				End Site
				{
					OFFSET 0.000000 -2.463878 4.653993
				}
			}
		}
	}
	JOINT rThigh
	{
		OFFSET -5.338403 -1.642589 1.368821
		CHANNELS 3 Xrotation Zrotation Yrotation 
		JOINT rShin
		{
			OFFSET 2.053232 -20.121670 0.000000
			CHANNELS 3 Xrotation Zrotation Yrotation 
			JOINT rFoot
			{
				OFFSET 0.000000 -19.300380 -1.231939
				CHANNELS 3 Xrotation Yrotation Zrotation 
				End Site
				{
					OFFSET 0.000000 -2.463878 4.653993
				}
			}
		}
	}
}
MOTION
Frames: 16
Frame Time: 0.071413
-20.987122 8.874371 -8.107097 89.996140 -0.003251 122.991737 17.009064 -16.363773 -10.339358 31.843142 -16.272909 -28.891117 -1.319026 -13.036385 -14.671780 -1.744937 -0.847306 29.281582 -63.054066 -14.036180 -5.444577 -42.161800 -5.026603 -70.177147 -50.411667 -6.784812 5.470879 55.296719 -31.042862 -7.026597 -22.128748 -6.036471 4.588815 9.845316 28.913937 33.631535 59.152130 -42.784473 17.819155 6.067425 2.971799 10.634416 -31.310486 5.851669 53.047234 89.594185 4.762113 -0.568799 4.544341 -7.557087 5.126237 -71.928146 -38.972324 5.553531 45.790974 7.450134 0.733168 10.050149 -1.332799 19.595968 
-20.987122 8.874371 -8.107097 89.996140 -0.003251 122.991737 17.009064 -16.363773 -10.339358 31.843142 -16.272909 -28.891117 -1.268102 -13.316880 -14.681282 -1.744937 -0.847306 29.281582 -63.054066 -14.036180 -5.444577 -42.161800 -5.026603 -70.177147 -50.856922 -6.776289 5.418936 55.296719 -31.042862 -7.026597 -22.128748 -6.036471 4.588815 9.845316 28.913937 33.631535 59.152130 -42.784473 17.819155 6.067425 2.971799 10.634416 -31.310486 5.851669 53.047234 89.594185 4.762113 -0.568799 4.544341 -7.557087 5.126237 -71.928146 -38.972324 5.553531 45.790974 7.450134 0.733168 10.050149 -1.332799 19.595968 
-20.987122 8.874371 -8.107097 89.996140 -0.003251 122.991737 17.009064 -16.363773 -10.339358 31.843142 -16.272909 -28.891117 -1.217062 -13.597408 -14.691051 -1.744937 -0.847306 29.281582 -63.054066 -14.036180 -5.444577 -42.161800 -5.026603 -70.177147 -51.302341 -6.767365 5.367044 55.296719 -31.042862 -7.026597 -22.128748 -6.036471 4.588815 9.845316 28.913937 33.631535 59.152130 -42.784473 17.819155 6.067425 2.971799 10.634416 -31.310486 5.851669 53.047234 89.594185 4.762113 -0.568799 4.544341 -7.557087 5.126237 -71.928146 -38.972324 5.553531 45.790974 7.450134 0.733168 10.050149 -1.332799 19.595968 
-20.987122 8.874371 -8.107097 89.996140 -0.003251 122.991737 17.009064 -16.363773 -10.339358 31.843142 -16.272909 -28.891117 -1.165905 -13.877971 -14.701093 -1.744937 -0.847306 29.281582 -63.054066 -14.036180 -5.444577 -42.161800 -5.026603 -70.177147 -51.747898 -6.758037 5.315208 55.296719 -31.042862 -7.026597 -22.128748 -6.036471 4.588815 9.845316 28.913937 33.631535 59.152130 -42.784473 17.819155 6.067425 2.971799 10.634416 -31.310486 5.851669 53.047234 89.594185 4.762113 -0.568799 4.544341 -7.557087 5.126237 -71.928146 -38.972324 5.553531 45.790974 7.450134 0.733168 10.050149 -1.332799 19.595968 
-20.987122 8.874371 -8.107097 89.996140 -0.003251 122.991737 17.009064 -16.363773 -10.339358 31.843142 -16.272909 -28.891117 -1.114627 -14.158563 -14.711408 -1.744937 -0.847306 29.281582 -63.054066 -14.036180 -5.444577 -42.161800 -5.026603 -70.177147 -52.193596 -6.748309 5.263432 55.296719 -31.042862 -7.026597 -22.128748 -6.036471 4.588815 9.845316 28.913937 33.631535 59.152130 -42.784473 17.819155 6.067425 2.971799 10.634416 -31.310486 5.851669 53.047234 89.594185 4.762113 -0.568799 4.544341 -7.557087 5.126237 -71.928146 -38.972324 5.553531 45.790974 7.450134 0.733168 10.050149 -1.332799 19.595968 
-20.987122 8.874371 -8.107097 89.996140 -0.003251 122.991737 17.009064 -16.363773 -10.339358 31.843142 -16.272909 -28.891117 -1.063228 -14.439176 -14.721994 -1.744937 -0.847306 29.281586 -63.054066 -14.036180 -5.444577 -42.161800 -5.026603 -70.177147 -52.639381 -6.738175 5.211717 55.296719 -31.042862 -7.026598 -22.128748 -6.036471 4.588815 9.845316 28.913937 33.631535 59.152130 -42.784473 17.819155 6.067425 2.971799 10.634416 -31.310486 5.851669 53.047234 89.594185 4.762113 -0.568799 4.544341 -7.557087 5.126237 -71.928146 -38.972324 5.553531 45.790974 7.450134 0.733168 10.050148 -1.332799 19.595966 
-20.987122 8.874371 -8.107097 89.996140 -0.003251 122.991737 17.009064 -16.363773 -10.339358 31.843142 -16.272909 -28.891117 -1.011704 -14.719808 -14.732859 -1.744937 -0.847306 29.281582 -63.054066 -14.036180 -5.444577 -42.161800 -5.026603 -70.177147 -53.085258 -6.727638 5.160072 55.296719 -31.042862 -7.026598 -22.128748 -6.036471 4.588815 9.845316 28.913937 33.631535 59.152130 -42.784473 17.819155 6.067425 2.971799 10.634416 -31.310486 5.851669 53.047234 89.594185 4.762113 -0.568799 4.544341 -7.557087 5.126237 -71.928146 -38.972324 5.553531 45.790974 7.450134 0.733168 10.050148 -1.332799 19.595966 
-20.987122 8.874371 -8.107097 89.996140 -0.003251 122.991737 17.009064 -16.363773 -10.339358 31.843142 -16.272909 -28.891117 -0.960053 -15.000462 -14.744000 -1.744937 -0.847306 29.281582 -63.054066 -14.036180 -5.444577 -42.161800 -5.026603 -70.177147 -53.531219 -6.716702 5.108501 55.296719 -31.042862 -7.026598 -22.128748 -6.036471 4.588815 9.845316 28.913937 33.631535 59.152138 -42.784481 17.819155 6.067425 2.971799 10.634416 -31.310486 5.851669 53.047234 89.594185 4.762113 -0.568799 4.544341 -7.557087 5.126237 -71.928146 -38.972324 5.553531 45.790974 7.450134 0.733168 10.050149 -1.332799 19.595968 
-20.987122 8.874371 -8.107097 89.996140 -0.003251 122.991737 17.009064 -16.363773 -10.339358 31.843142 -16.272909 -28.891117 -0.908273 -15.281122 -14.755417 -1.744937 -0.847306 29.281586 -63.054066 -14.036180 -5.444577 -42.161800 -5.026603 -70.177147 -53.977249 -6.705365 5.057009 55.296719 -31.042862 -7.026598 -22.128748 -6.036471 4.588815 9.845316 28.913937 33.631535 59.152130 -42.784473 17.819155 6.067425 2.971799 10.634416 -31.310486 5.851669 53.047234 89.594185 4.762113 -0.568799 4.544341 -7.557087 5.126237 -71.928146 -38.972324 5.553531 45.790974 7.450134 0.733168 10.050149 -1.332799 19.595968 
-20.987122 8.874371 -8.107097 89.996140 -0.003251 122.991737 17.009064 -16.363773 -10.339358 31.843142 -16.272909 -28.891117 -0.856361 -15.561792 -14.767108 -1.744937 -0.847306 29.281582 -63.054073 -14.036181 -5.444576 -42.161800 -5.026603 -70.177147 -54.423336 -6.693628 5.005600 55.296719 -31.042862 -7.026598 -22.128748 -6.036471 4.588815 9.845316 28.913937 33.631535 59.152138 -42.784481 17.819155 6.067425 2.971799 10.634416 -31.310486 5.851669 53.047234 89.594185 4.762113 -0.568799 4.544341 -7.557087 5.126237 -71.928146 -38.972324 5.553531 45.790974 7.450134 0.733168 10.050149 -1.332799 19.595968 
-20.987122 8.874371 -8.107097 89.996140 -0.003251 122.991737 17.009064 -16.363773 -10.339358 31.843142 -16.272909 -28.891117 -0.804315 -15.842474 -14.779090 -1.744937 -0.847306 29.281582 -63.054066 -14.036180 -5.444577 -42.161800 -5.026603 -70.177147 -54.869446 -6.681491 4.954278 55.296719 -31.042862 -7.026598 -22.128748 -6.036471 4.588815 9.845316 28.913937 33.631535 59.152130 -42.784477 17.819159 6.067425 2.971799 10.634416 -31.310486 5.851669 53.047234 89.594185 4.762113 -0.568799 4.544341 -7.557087 5.126237 -71.928146 -38.972324 5.553531 45.790974 7.450134 0.733168 10.050149 -1.332799 19.595968 
-20.987122 8.874371 -8.107097 89.996140 -0.003251 122.991737 17.009064 -16.363773 -10.339358 31.843142 -16.272909 -28.891117 -0.752133 -16.123150 -14.791348 -1.744937 -0.847306 29.281586 -63.054066 -14.036180 -5.444577 -42.161800 -5.026603 -70.177147 -55.315598 -6.668959 4.903051 55.296719 -31.042862 -7.026598 -22.128748 -6.036471 4.588815 9.845316 28.913937 33.631535 59.152138 -42.784481 17.819155 6.067425 2.971799 10.634416 -31.310486 5.851669 53.047234 89.594185 4.762113 -0.568799 4.544341 -7.557087 5.126237 -71.928146 -38.972324 5.553531 45.790974 7.450134 0.733168 10.050149 -1.332799 19.595968 
-20.987122 8.874371 -8.107097 89.996140 -0.003251 122.991737 17.009064 -16.363773 -10.339358 31.843142 -16.272909 -28.891117 -0.699812 -16.403830 -14.803896 -1.744937 -0.847306 29.281582 -63.054066 -14.036180 -5.444577 -42.161800 -5.026603 -70.177147 -55.761749 -6.656027 4.851918 55.296719 -31.042862 -7.026598 -22.128748 -6.036471 4.588815 9.845316 28.913937 33.631535 59.152130 -42.784473 17.819155 6.067425 2.971799 10.634416 -31.310486 5.851669 53.047234 89.594185 4.762113 -0.568799 4.544341 -7.557087 5.126237 -71.928146 -38.972324 5.553531 45.790974 7.450134 0.733168 10.050148 -1.332799 19.595966 
-20.987122 8.874371 -8.107097 89.996140 -0.003251 122.991737 17.009064 -16.363773 -10.339358 31.843142 -16.272909 -28.891117 -0.647349 -16.684500 -14.816728 -1.744937 -0.847306 29.281582 -63.054066 -14.036180 -5.444577 -42.161800 -5.026603 -70.177147 -56.207897 -6.642701 4.800889 55.296719 -31.042862 -7.026597 -22.128748 -6.036471 4.588815 9.845316 28.913937 33.631535 59.152130 -42.784473 17.819155 6.067425 2.971799 10.634416 -31.310486 5.851669 53.047234 89.594185 4.762113 -0.568799 4.544341 -7.557087 5.126237 -71.928146 -38.972324 5.553531 45.790977 7.450134 0.733168 10.050149 -1.332799 19.595968 
-20.987122 8.874371 -8.107097 89.996140 -0.003251 122.991737 17.009064 -16.363773 -10.339358 31.843142 -16.272909 -28.891117 -0.594743 -16.965158 -14.829845 -1.744937 -0.847306 29.281582 -63.054073 -14.036181 -5.444576 -42.161800 -5.026603 -70.177147 -56.654041 -6.628981 4.749966 55.296719 -31.042862 -7.026597 -22.128748 -6.036471 4.588815 9.845316 28.913937 33.631535 59.152130 -42.784470 17.819155 6.067425 2.971799 10.634416 -31.310486 5.851669 53.047234 89.594185 4.762113 -0.568799 4.544341 -7.557087 5.126237 -71.928146 -38.972324 5.553531 45.790974 7.450134 0.733168 10.050149 -1.332799 19.595968 
-20.987122 8.874371 -8.107097 89.996140 -0.003251 122.991737 17.009064 -16.363773 -10.339358 31.843142 -16.272909 -28.891117 -0.541990 -17.245804 -14.843251 -1.744937 -0.847306 29.281582 -63.054066 -14.036180 -5.444577 -42.161800 -5.026603 -70.177147 -57.100140 -6.614867 4.699154 55.296719 -31.042862 -7.026597 -22.128748 -6.036471 4.588815 9.845316 28.913937 33.631535 59.152130 -42.784473 17.819155 6.067425 2.971799 10.634416 -31.310486 5.851669 53.047234 89.594185 4.762113 -0.568799 4.544341 -7.557087 5.126237 -71.928146 -38.972324 5.553531 45.790974 7.450134 0.733168 10.050149 -1.332799 19.595968 
